<?xml version="1.0" encoding="UTF-8"?><svg xmlns="http://www.w3.org/2000/svg" viewBox="0 0 360.16 153.57"><defs><style>.cls-1,.cls-2{fill:#f3a6bd;}.cls-3{fill:#e8624d;}.cls-4,.cls-5{fill:#fff;}.cls-6{fill:#981917;}.cls-7{fill:#e21b18;}.cls-8{fill:#27a437;}.cls-8,.cls-9,.cls-10,.cls-11,.cls-12,.cls-13,.cls-14,.cls-15,.cls-16,.cls-17,.cls-18,.cls-19,.cls-20,.cls-21,.cls-22,.cls-23,.cls-24,.cls-2{mix-blend-mode:multiply;}.cls-9{fill:#a2d7e9;}.cls-10{fill:#373185;}.cls-11{fill:#3669a7;}.cls-12{fill:#d98708;}.cls-13{fill:#bec8ce;}.cls-14{fill:#b2ca06;}.cls-15{fill:#ac1269;}.cls-16{fill:#dbda03;}.cls-17{fill:#009ca4;}.cls-18{fill:#bd1d33;}.cls-19{fill:#fbe9cd;}.cls-20{fill:#e62767;}.cls-21{fill:#f6ab2b;}.cls-22{fill:#008438;}.cls-23{fill:#008fc3;}.cls-24{fill:#f7e70f;}.cls-25,.cls-5{opacity:.6;}.cls-26{isolation:isolate;}</style></defs><g class="cls-26"><g id="Lag_1"><g><circle class="cls-4" cx="76.78" cy="76.79" r="76.78"/><g><g><g><polygon class="cls-17" points="143.26 115.16 128.52 90.64 113.06 97.72 113.04 97.7 113.05 97.72 113.03 97.73 113.05 97.74 114.66 114.66 143.26 115.17 143.27 115.18 143.27 115.17 143.28 115.17 143.26 115.16"/><path class="cls-19" d="M38.4,10.29c-5.68,3.28-11.04,7.34-15.9,12.21l16.41,16.41-.51-28.62Z"/><polygon class="cls-12" points="56.51 56.52 60.7 67.49 66.61 66.61 67.49 60.7 56.51 56.52"/><polygon class="cls-7" points="38.91 38.91 40.52 55.87 56.51 56.52 55.86 40.52 38.91 38.91"/><path class="cls-19" d="M10.29,38.4c3.28-5.68,7.34-11.04,12.21-15.9l16.41,16.41-28.62-.51Z"/><path class="cls-11" d="M143.28,115.17c-3.28,5.68-7.35,11.04-12.21,15.9l-16.41-16.41,28.62,.51Z"/><polygon class="cls-17" points="97.05 97.05 86.07 92.87 86.95 86.96 92.87 86.07 97.05 97.05"/><polygon class="cls-11" points="114.66 114.66 97.7 113.05 97.05 97.05 113.04 97.7 114.66 114.66"/><path class="cls-11" d="M115.17,143.28c5.68-3.28,11.04-7.35,15.9-12.21l-16.41-16.41,.51,28.62Z"/><polygon class="cls-3" points="60.7 67.49 60.7 67.5 60.7 67.5 62.89 73.06 76.78 76.78 66.61 66.61 60.7 67.49"/><polygon class="cls-3" points="56.51 56.52 40.59 55.87 40.54 55.84 40.55 55.87 40.52 55.87 40.57 55.89 49.1 69.37 60.7 67.5 60.7 67.49 56.51 56.52"/><path class="cls-20" d="M10.29,38.39c-3.28,5.69-5.89,11.88-7.67,18.52l22.42,6.01-14.75-24.53Z"/><polygon class="cls-3" points="40.52 55.83 38.91 38.91 10.3 38.4 10.29 38.39 10.29 38.4 10.29 38.4 10.3 38.4 25.04 62.92 40.5 55.85 40.52 55.87 40.52 55.85 40.54 55.84 40.52 55.83"/><polygon class="cls-1" points="49.1 69.37 58.21 76.78 62.89 73.06 60.7 67.5 49.1 69.37"/><polygon class="cls-19" points="25.04 62.92 34.92 76.8 49.1 69.37 40.54 55.84 25.04 62.92"/><path class="cls-19" d="M0,76.79c0-6.57,.84-13.24,2.62-19.87l22.42,6.01L0,76.79Z"/><path class="cls-9" d="M153.56,76.78c0,6.56-.84,13.23-2.62,19.88l-22.42-6.01,25.04-13.87Z"/><polygon class="cls-13" points="90.68 80.51 76.78 76.78 86.95 86.96 92.87 86.07 92.87 86.07 90.68 80.51"/><polygon class="cls-17" points="104.47 84.2 92.87 86.07 90.68 80.51 95.36 76.79 104.47 84.2"/><polygon class="cls-9" points="128.52 90.64 113.03 97.73 104.47 84.2 118.65 76.77 128.52 90.64"/><polygon class="cls-23" points="112.99 97.67 104.47 84.2 92.87 86.07 92.87 86.07 97.05 97.05 112.98 97.7 113.03 97.73 113.01 97.7 113.04 97.7 112.99 97.67"/><path class="cls-10" d="M143.27,115.18c3.28-5.69,5.89-11.88,7.67-18.52l-22.42-6.01,14.75,24.53Z"/><polygon class="cls-12" points="62.89 73.06 58.21 76.78 58.21 76.79 58.21 76.78 62.89 80.51 76.78 76.78 62.89 73.06"/><polygon class="cls-12" points="58.21 76.78 49.1 69.37 34.98 76.77 34.92 76.77 34.95 76.78 34.92 76.8 34.98 76.8 49.1 84.2 58.21 76.78 58.21 76.78"/><path class="cls-19" d="M0,76.78c0,6.56,.84,13.23,2.62,19.87l22.42-6.01L0,76.78Z"/><polygon class="cls-12" points="34.9 76.77 25.04 62.92 .01 76.78 0 76.78 0 76.78 0 76.79 .02 76.79 25.05 90.65 34.89 76.8 34.92 76.8 34.91 76.78 34.92 76.77 34.9 76.77"/><polygon class="cls-21" points="49.1 84.2 60.7 86.07 62.89 80.51 58.21 76.78 49.1 84.2"/><polygon class="cls-21" points="25.05 90.65 40.53 97.73 49.1 84.2 34.92 76.77 25.05 90.65"/><path class="cls-12" d="M10.29,115.18c-3.28-5.69-5.89-11.88-7.67-18.53l22.42-6.01-14.76,24.53Z"/><path class="cls-9" d="M143.27,38.39c3.28,5.69,5.89,11.88,7.67,18.52l-22.42,6.01,14.75-24.53Z"/><polygon class="cls-9" points="95.36 76.78 90.68 73.06 76.78 76.78 90.68 80.51 95.36 76.79 95.35 76.78 95.36 76.78"/><polygon class="cls-13" points="104.47 69.37 95.36 76.78 90.68 73.06 92.87 67.5 104.47 69.37"/><polygon class="cls-13" points="128.52 62.92 118.65 76.8 104.47 69.37 113.03 55.84 128.52 62.92"/><polygon class="cls-9" points="118.62 76.78 118.65 76.77 118.59 76.77 104.47 69.37 95.36 76.78 95.36 76.79 104.47 84.2 118.59 76.8 118.65 76.8 118.62 76.78"/><path class="cls-9" d="M153.56,76.78c0-6.56-.84-13.23-2.62-19.87l-22.42,6.01,25.04,13.87Z"/><polygon class="cls-11" points="153.56 76.78 153.56 76.78 153.55 76.78 128.52 62.92 118.67 76.76 118.65 76.77 118.66 76.78 118.65 76.8 118.67 76.8 128.52 90.64 153.55 76.78 153.56 76.78 153.56 76.78"/><polygon class="cls-24" points="62.89 80.51 60.7 86.07 60.71 86.07 60.69 86.07 66.61 86.96 76.78 76.78 62.89 80.51"/><polygon class="cls-16" points="60.7 86.07 49.1 84.2 40.57 97.67 40.52 97.7 40.55 97.7 40.53 97.73 40.59 97.7 56.51 97.05 60.69 86.07 60.7 86.07"/><path class="cls-8" d="M10.29,115.17c3.29,5.68,7.35,11.04,12.21,15.9l16.41-16.41-28.62,.51Z"/><polygon class="cls-19" points="40.52 97.72 40.52 97.7 40.5 97.71 25.05 90.65 10.3 115.16 10.29 115.17 10.3 115.17 10.29 115.18 10.3 115.17 38.91 114.66 40.51 97.74 40.53 97.73 40.52 97.72"/><polygon class="cls-21" points="56.51 97.05 67.49 92.87 66.61 86.96 60.69 86.07 56.51 97.05"/><polygon class="cls-14" points="38.91 114.66 55.86 113.05 56.51 97.05 40.52 97.7 38.91 114.66"/><path class="cls-16" d="M38.39,143.28c-5.68-3.29-11.04-7.34-15.9-12.21l16.41-16.41-.51,28.62Z"/><path class="cls-2" d="M115.17,10.29c5.69,3.29,11.04,7.35,15.9,12.21l-16.41,16.41,.51-28.62Z"/><polygon class="cls-15" points="92.87 67.5 86.95 66.61 76.78 76.78 90.68 73.06 92.87 67.5 92.86 67.5 92.87 67.5"/><polygon class="cls-3" points="97.05 56.51 92.87 67.5 86.95 66.61 86.07 60.7 97.05 56.51"/><polygon class="cls-1" points="114.66 38.91 113.05 55.86 97.05 56.51 97.7 40.52 114.66 38.91"/><polygon class="cls-15" points="113.01 55.87 113.03 55.84 112.98 55.87 97.05 56.51 92.87 67.5 92.87 67.5 104.47 69.37 112.99 55.89 113.05 55.86 113.01 55.87"/><path class="cls-15" d="M143.28,38.4c-3.28-5.68-7.34-11.04-12.21-15.9l-16.41,16.41,28.62-.51Z"/><polygon class="cls-2" points="143.27 38.39 143.27 38.39 143.26 38.4 114.66 38.91 113.05 55.83 113.03 55.84 113.05 55.84 113.05 55.86 113.07 55.85 128.52 62.92 143.27 38.4 143.28 38.4 143.27 38.39"/><polygon class="cls-19" points="66.61 86.96 67.49 92.87 67.5 92.86 67.49 92.87 73.06 90.68 76.78 76.78 66.61 86.96"/><polygon class="cls-24" points="67.49 92.87 56.51 97.05 55.87 112.98 55.84 113.03 55.87 113.01 55.86 113.05 55.89 112.99 69.36 104.47 67.49 92.87 67.49 92.87"/><path class="cls-14" d="M38.39,143.28c5.69,3.28,11.88,5.89,18.52,7.67l6.01-22.42-24.53,14.76Z"/><polygon class="cls-8" points="55.85 113.06 55.86 113.05 55.84 113.05 55.84 113.03 55.83 113.05 38.91 114.66 38.39 143.26 38.39 143.28 38.4 143.27 38.39 143.28 38.4 143.27 62.92 128.52 55.85 113.06"/><polygon class="cls-14" points="69.36 104.47 76.78 95.36 73.06 90.68 67.49 92.87 69.36 104.47"/><polygon class="cls-14" points="62.92 128.52 76.8 118.65 69.36 104.47 55.84 113.03 62.92 128.52"/><path class="cls-19" d="M76.79,153.56c-6.56,0-13.23-.84-19.88-2.62l6.01-22.42,13.87,25.04Z"/><path class="cls-19" d="M76.78,0c6.56,0,13.23,.84,19.87,2.62l-6.01,22.42L76.78,0Z"/><polygon class="cls-20" points="86.07 60.7 80.5 62.89 76.78 76.78 86.95 66.61 86.07 60.7 86.07 60.7"/><polygon class="cls-7" points="84.2 49.1 86.07 60.7 80.5 62.89 76.78 58.21 84.2 49.1"/><polygon class="cls-20" points="90.65 25.05 97.73 40.53 84.2 49.1 76.77 34.92 90.65 25.05"/><polygon class="cls-15" points="97.73 40.53 97.7 40.55 97.7 40.52 97.67 40.57 84.2 49.1 86.07 60.7 86.07 60.7 97.05 56.51 97.7 40.59 97.73 40.53"/><path class="cls-1" d="M115.18,10.29c-5.69-3.28-11.88-5.89-18.52-7.67l-6.01,22.42,24.53-14.75Z"/><polygon class="cls-7" points="115.17 10.3 115.18 10.29 115.17 10.29 115.17 10.29 115.16 10.3 90.65 25.05 97.71 40.5 97.7 40.52 97.72 40.52 97.73 40.53 97.74 40.52 114.66 38.91 115.17 10.3"/><polygon class="cls-21" points="73.06 90.68 76.78 95.36 76.78 95.35 76.78 95.36 80.5 90.68 76.78 76.78 73.06 90.68"/><polygon class="cls-16" points="76.78 95.36 76.78 95.36 69.36 104.47 76.77 118.59 76.77 118.65 76.78 118.62 76.8 118.65 76.8 118.59 84.2 104.47 76.78 95.36"/><path class="cls-19" d="M76.78,153.56c6.56,0,13.23-.84,19.87-2.62l-6.01-22.42-13.87,25.04Z"/><polygon class="cls-16" points="80.5 90.68 86.07 92.87 86.07 92.86 86.07 92.87 86.95 86.96 76.78 76.78 80.5 90.68"/><polygon class="cls-14" points="84.2 104.47 86.07 92.87 80.5 90.68 76.78 95.36 84.2 104.47"/><polygon class="cls-14" points="90.64 128.52 97.73 113.03 84.2 104.47 76.77 118.65 90.64 128.52"/><polygon class="cls-9" points="97.7 112.98 97.05 97.05 86.07 92.87 86.07 92.87 84.2 104.47 97.67 112.99 97.7 113.05 97.7 113.01 97.73 113.03 97.7 112.98"/><path class="cls-8" d="M115.18,143.27c-5.69,3.28-11.88,5.89-18.52,7.67l-6.01-22.42,24.53,14.75Z"/><polygon class="cls-17" points="115.17 143.26 114.66 114.66 97.74 113.05 97.73 113.03 97.72 113.05 97.7 113.05 97.71 113.07 90.64 128.52 115.16 143.26 115.17 143.28 115.17 143.27 115.18 143.27 115.17 143.26"/><polygon class="cls-7" points="67.49 60.7 67.5 60.7 67.49 60.7 66.61 66.61 76.78 76.78 73.06 62.89 67.49 60.7"/><polygon class="cls-3" points="69.37 49.1 55.89 40.57 55.86 40.52 55.87 40.55 55.84 40.53 55.87 40.59 56.51 56.52 67.49 60.7 67.49 60.7 69.37 49.1"/><path class="cls-19" d="M38.39,10.29c5.69-3.28,11.88-5.89,18.52-7.67l6.01,22.42-24.53-14.75Z"/><polygon class="cls-20" points="55.85 40.5 62.92 25.05 38.4 10.3 38.4 10.29 38.39 10.3 38.39 10.29 38.4 10.31 38.91 38.91 55.83 40.52 55.84 40.53 55.84 40.52 55.86 40.52 55.85 40.5"/><polygon class="cls-6" points="73.06 62.89 76.78 76.78 80.5 62.89 76.78 58.21 73.06 62.89"/><polygon class="cls-18" points="69.37 49.1 76.78 58.21 73.06 62.89 67.49 60.7 69.37 49.1"/><polygon class="cls-7" points="62.92 25.05 76.8 34.92 69.37 49.1 55.84 40.53 62.92 25.05"/><polygon class="cls-20" points="76.8 34.92 76.79 34.95 76.77 34.92 76.77 34.98 69.37 49.1 76.78 58.21 76.78 58.21 84.2 49.1 76.8 34.98 76.8 34.92"/><path class="cls-19" d="M76.79,0c-6.57,0-13.24,.84-19.88,2.62l6.01,22.42L76.79,0Z"/><polygon class="cls-12" points="76.79 .01 76.79 0 76.78 0 76.78 0 76.78 .01 62.92 25.05 76.77 34.89 76.77 34.92 76.78 34.91 76.8 34.92 76.8 34.89 90.65 25.05 76.79 .01"/></g><g class="cls-25"><path class="cls-1" d="M38.4,10.28c-5.68,3.29-11.05,7.35-15.91,12.21l8.83,8.83,7.08-21.04Z"/><polygon class="cls-12" points="43.96 43.97 44.99 58.42 56.51 56.52 58.42 44.99 43.96 43.97"/><polygon class="cls-12" points="31.32 31.33 29.64 49.55 43.96 43.97 49.55 29.64 31.32 31.33"/><path class="cls-12" d="M10.28,38.4c3.29-5.68,7.35-11.04,12.21-15.91l8.83,8.83-21.04,7.08Z"/><path class="cls-10" d="M143.28,115.16c-3.29,5.68-7.35,11.05-12.21,15.91l-8.83-8.83,21.04-7.08Z"/><polygon class="cls-11" points="109.59 109.6 95.14 108.58 97.05 97.05 108.58 95.14 109.59 109.6"/><polygon class="cls-20" points="31.96 64.77 40.07 76.78 49.1 69.37 44.99 58.42 31.96 64.77"/><path class="cls-1" d="M0,76.8c0-6.57,.84-13.24,2.62-19.88l12.06,3.23L0,76.8Z"/><path class="cls-9" d="M153.56,76.77c0,6.57-.84,13.24-2.62,19.88l-12.06-3.23,14.68-16.65Z"/><polygon class="cls-9" points="121.61 88.79 108.58 95.14 104.47 84.2 113.5 76.78 121.61 88.79"/><polygon class="cls-11" points="138.88 93.42 123.94 103.99 121.61 88.79 131.23 76.8 138.88 93.42"/><path class="cls-9" d="M143.27,115.18c3.28-5.69,5.89-11.89,7.67-18.53l-12.06-3.23,4.39,21.76Z"/><path class="cls-19" d="M0,76.77c0,6.57,.84,13.24,2.62,19.88l12.06-3.23L0,76.77Z"/><polygon class="cls-19" points="31.95 88.8 44.99 95.15 49.1 84.2 40.07 76.78 31.95 88.8"/><polygon class="cls-19" points="14.69 93.42 29.62 103.99 31.95 88.8 22.34 76.8 14.69 93.42"/><polygon class="cls-9" points="121.61 64.77 113.5 76.78 104.47 69.37 108.58 58.42 121.61 64.77"/><path class="cls-11" d="M153.56,76.79c0-6.57-.84-13.24-2.62-19.88l-12.06,3.23,14.69,16.65Z"/><polygon class="cls-16" points="43.97 109.6 58.42 108.58 56.51 97.05 44.99 95.15 43.97 109.6"/><polygon class="cls-8" points="31.32 122.24 49.54 123.93 43.97 109.6 29.64 104.02 31.32 122.24"/><path class="cls-9" d="M38.4,143.28c-5.68-3.28-11.05-7.35-15.91-12.21l8.83-8.83,7.08,21.04Z"/><path class="cls-15" d="M115.16,10.28c5.68,3.29,11.04,7.35,15.91,12.21l-8.83,8.83-7.08-21.04Z"/><polygon class="cls-15" points="109.6 43.96 108.58 58.42 97.05 56.51 95.14 44.99 109.6 43.96"/><polygon class="cls-15" points="122.24 31.32 123.93 49.54 109.6 43.96 104.02 29.64 122.24 31.32"/><polygon class="cls-19" points="64.77 121.61 76.78 113.5 69.36 104.47 58.42 108.58 64.77 121.61"/><polygon class="cls-8" points="60.14 138.88 76.77 131.23 64.77 121.61 49.57 123.94 60.14 138.88"/><path class="cls-24" d="M76.79,153.56c-6.57,0-13.24-.84-19.88-2.62l3.23-12.06,16.65,14.68Z"/><path class="cls-7" d="M76.77,0c6.57,0,13.24,.84,19.88,2.62l-3.23,12.06L76.77,0Z"/><polygon class="cls-6" points="88.8 31.95 95.14 44.99 84.2 49.1 76.78 40.06 88.8 31.95"/><polygon class="cls-6" points="93.42 14.68 103.99 29.62 88.8 31.95 76.8 22.34 93.42 14.68"/><path class="cls-3" d="M115.18,10.3c-5.69-3.28-11.88-5.89-18.53-7.67l-3.23,12.06,21.76-4.39Z"/><path class="cls-8" d="M76.77,153.56c6.57,0,13.24-.84,19.88-2.62l-3.23-12.06-16.65,14.68Z"/><polygon class="cls-14" points="88.79 121.61 95.14 108.58 84.2 104.47 76.78 113.5 88.79 121.61"/><polygon class="cls-22" points="93.42 138.88 103.99 123.94 88.79 121.61 76.8 131.23 93.42 138.88"/><path class="cls-12" d="M38.38,10.3c5.69-3.28,11.89-5.89,18.53-7.67l3.23,12.06-21.76-4.39Z"/><polygon class="cls-12" points="64.77 31.95 76.78 40.06 69.37 49.1 58.42 44.99 64.77 31.95"/><polygon class="cls-12" points="60.14 14.69 76.77 22.33 64.77 31.95 49.57 29.62 60.14 14.69"/><path class="cls-2" d="M76.79,0c-6.57,0-13.24,.84-19.88,2.62l3.23,12.06L76.79,0Z"/><polygon class="cls-7" points="76.77 22.33 64.77 31.95 76.78 40.06 88.8 31.95 76.8 22.34 76.77 22.33"/><polygon class="cls-7" points="76.77 22.33 60.14 14.69 76.79 0 76.77 0 93.42 14.68 76.8 22.34 76.77 22.33"/><polygon class="cls-1" points="49.57 29.62 60.14 14.69 38.38 10.3 38.4 10.28 31.32 31.33 49.55 29.64 49.57 29.62"/><polygon class="cls-1" points="29.62 49.57 14.69 60.15 10.3 38.38 10.28 38.4 31.32 31.33 29.64 49.55 29.62 49.57"/><polygon class="cls-1" points="29.62 49.57 31.96 64.77 44.99 58.42 43.96 43.97 29.64 49.55 29.62 49.57"/><polygon class="cls-1" points="22.34 76.8 31.95 88.8 40.07 76.78 31.96 64.77 22.33 76.77 22.34 76.8"/><polygon class="cls-12" points="22.34 76.8 14.69 93.42 0 76.77 0 76.8 14.69 60.15 22.33 76.77 22.34 76.8"/><polygon class="cls-16" points="29.64 104.02 31.32 122.24 10.28 115.16 10.29 115.18 14.69 93.42 29.62 103.99 29.64 104.02"/><polygon class="cls-12" points="29.64 104.02 43.97 109.6 44.99 95.15 31.95 88.8 29.62 103.99 29.64 104.02"/><polygon class="cls-23" points="103.99 123.94 88.79 121.61 95.14 108.58 109.59 109.6 104.02 123.92 103.99 123.94"/><polygon class="cls-11" points="123.94 103.99 121.61 88.79 108.58 95.14 109.59 109.6 123.93 104.02 123.94 103.99"/><polygon class="cls-11" points="131.23 76.76 121.61 64.77 113.5 76.78 121.61 88.79 131.23 76.8 131.23 76.76"/><polygon class="cls-1" points="123.93 49.54 109.6 43.96 108.58 58.42 121.61 64.77 123.94 49.57 123.93 49.54"/><polygon class="cls-12" points="103.99 29.62 88.8 31.95 95.14 44.99 109.6 43.96 104.02 29.64 103.99 29.62"/><path class="cls-1" d="M10.3,38.38c-3.28,5.69-5.89,11.89-7.67,18.53l12.06,3.23-4.39-21.76Z"/></g></g><polygon class="cls-11" points="115.3 115.27 132.46 108.93 131.07 131.08 131.08 131.07 108.93 132.46 115.27 115.29 115.3 115.27"/><path class="cls-9" d="M150.95,96.64c-1.7,6.35-4.23,12.57-7.68,18.53l-10.81-6.25,18.49-12.28Z"/><path class="cls-22" d="M56.92,150.95c-6.34-1.7-12.57-4.24-18.53-7.68l6.25-10.81,12.28,18.49Z"/><polygon class="cls-24" points="38.29 115.29 53.58 116.97 50.82 102.74 36.59 99.99 38.27 115.27 38.29 115.29"/><polygon class="cls-16" points="24.19 90.89 36.59 99.99 41.31 86.29 30.37 76.78 24.18 90.86 24.19 90.89"/><polygon class="cls-21" points="24.19 90.89 21.11 108.93 2.61 96.64 2.62 96.67 12.49 76.78 24.18 90.86 24.19 90.89"/><path class="cls-24" d="M2.61,96.64c1.7,6.34,4.24,12.57,7.68,18.53l10.81-6.24L2.61,96.64Z"/><polygon class="cls-19" points="90.89 24.2 99.99 36.59 86.28 41.32 76.78 30.37 90.86 24.19 90.89 24.2"/><path class="cls-1" d="M2.61,56.92c1.7-6.34,4.24-12.57,7.68-18.53l10.81,6.25L2.61,56.92Z"/><polygon class="cls-2" points="129.37 62.68 132.46 44.64 150.95 56.92 150.94 56.9 141.07 76.78 129.38 62.71 129.37 62.68"/><polygon class="cls-2" points="129.39 90.81 141.09 76.74 150.96 96.62 150.96 96.59 132.47 108.88 129.39 90.84 129.39 90.81"/><polygon class="cls-9" points="132.46 108.93 115.3 115.27 116.98 99.99 129.37 90.89 132.46 108.93"/><polygon class="cls-9" points="62.92 128.52 44.64 132.46 56.92 150.95 56.9 150.94 76.78 141.07 62.92 128.52 62.92 128.52"/><polygon class="cls-5" points="69.36 104.47 56.52 97.09 49.1 84.2 49.1 69.37 56.51 56.52 69.37 49.1 84.2 49.1 97.05 56.51 104.47 69.37 104.47 84.2 97.04 97.09 84.2 104.47 69.36 104.47"/><path class="cls-22" d="M10.28,115.16c3.28,5.68,7.35,11.05,12.21,15.91l8.83-8.83-21.04-7.08Z"/><path class="cls-22" d="M56.9,150.94c6.34,1.69,13,2.61,19.88,2.61v-12.49l-19.88,9.87Z"/><polygon class="cls-8" points="76.78 153.55 90.64 128.52 76.8 118.67 76.8 118.65 76.78 118.66 76.77 118.65 76.76 118.67 62.92 128.52 76.78 153.55 76.78 153.56 76.78 153.56 76.79 153.56 76.78 153.55"/><polygon class="cls-14" points="76.8 131.23 93.42 138.88 76.77 153.56 76.79 153.56 60.14 138.88 76.77 131.23 76.8 131.23"/><polygon class="cls-22" points="76.78 140.01 62.94 128.52 76.78 122.43 90.63 128.52 76.78 140.01"/></g></g><g><path d="M178.12,39.58c0-8.44,6.48-14.48,15.2-14.48,4.84,0,8.88,1.76,11.52,4.96l-4.16,3.84c-1.88-2.16-4.24-3.28-7.04-3.28-5.24,0-8.96,3.68-8.96,8.96s3.72,8.96,8.96,8.96c2.8,0,5.16-1.12,7.04-3.32l4.16,3.84c-2.64,3.24-6.68,5-11.56,5-8.68,0-15.16-6.04-15.16-14.48Z"/><path d="M222.12,31.74v5.76c-.52-.04-.92-.08-1.4-.08-3.44,0-5.72,1.88-5.72,6v10.16h-6.24v-21.52h5.96v2.84c1.52-2.08,4.08-3.16,7.4-3.16Z"/><path d="M246.6,44.58h-16.28c.6,2.68,2.88,4.32,6.16,4.32,2.28,0,3.92-.68,5.4-2.08l3.32,3.6c-2,2.28-5,3.48-8.88,3.48-7.44,0-12.28-4.68-12.28-11.08s4.92-11.08,11.48-11.08,11.2,4.24,11.2,11.16c0,.48-.08,1.16-.12,1.68Zm-16.36-3.64h10.6c-.44-2.72-2.48-4.48-5.28-4.48s-4.88,1.72-5.32,4.48Z"/><path d="M269.32,41.3v12.28h-5.84v-2.68c-1.16,1.96-3.4,3-6.56,3-5.04,0-8.04-2.8-8.04-6.52s2.68-6.44,9.24-6.44h4.96c0-2.68-1.6-4.24-4.96-4.24-2.28,0-4.64,.76-6.2,2l-2.24-4.36c2.36-1.68,5.84-2.6,9.28-2.6,6.56,0,10.36,3.04,10.36,9.56Zm-6.24,5.48v-2.2h-4.28c-2.92,0-3.84,1.08-3.84,2.52,0,1.56,1.32,2.6,3.52,2.6,2.08,0,3.88-.96,4.6-2.92Z"/><path d="M288.84,52.54c-1.28,.92-3.16,1.36-5.08,1.36-5.08,0-8.04-2.6-8.04-7.72v-8.84h-3.32v-4.8h3.32v-5.24h6.24v5.24h5.36v4.8h-5.36v8.76c0,1.84,1,2.84,2.68,2.84,.92,0,1.84-.28,2.52-.8l1.68,4.4Z"/><path d="M291.6,25.58c0-1.96,1.56-3.48,3.88-3.48s3.88,1.44,3.88,3.36c0,2.08-1.56,3.6-3.88,3.6s-3.88-1.52-3.88-3.48Zm.76,6.48h6.24v21.52h-6.24v-21.52Z"/><path d="M325.76,32.06l-9.08,21.52h-6.44l-9.04-21.52h6.44l5.96,14.64,6.16-14.64h6Z"/><path d="M348.68,44.58h-16.28c.6,2.68,2.88,4.32,6.16,4.32,2.28,0,3.92-.68,5.4-2.08l3.32,3.6c-2,2.28-5,3.48-8.88,3.48-7.44,0-12.28-4.68-12.28-11.08s4.92-11.08,11.48-11.08,11.2,4.24,11.2,11.16c0,.48-.08,1.16-.12,1.68Zm-16.36-3.64h10.6c-.44-2.72-2.48-4.48-5.28-4.48s-4.88,1.72-5.32,4.48Z"/><path d="M205.56,83.44c0,4.84-3.84,7.64-11.2,7.64h-14.48v-28h13.68c7,0,10.6,2.92,10.6,7.28,0,2.8-1.44,4.96-3.72,6.16,3.12,1,5.12,3.4,5.12,6.92Zm-19.24-15.48v6.6h6.44c3.16,0,4.88-1.12,4.88-3.32s-1.72-3.28-4.88-3.28h-6.44Zm12.72,14.8c0-2.36-1.8-3.48-5.16-3.48h-7.56v6.92h7.56c3.36,0,5.16-1.04,5.16-3.44Z"/><path d="M230.92,69.56v21.52h-5.92v-2.56c-1.64,1.88-4.04,2.88-6.68,2.88-5.4,0-9.2-3.04-9.2-9.68v-12.16h6.24v11.24c0,3.6,1.6,5.2,4.36,5.2s4.96-1.84,4.96-5.8v-10.64h6.24Z"/><path d="M234.64,89.08l2.08-4.48c1.92,1.24,4.84,2.08,7.48,2.08,2.88,0,3.96-.76,3.96-1.96,0-3.52-13,.08-13-8.52,0-4.08,3.68-6.96,9.96-6.96,2.96,0,6.24,.68,8.28,1.88l-2.08,4.44c-2.12-1.2-4.24-1.6-6.2-1.6-2.8,0-4,.88-4,2,0,3.68,13,.12,13,8.6,0,4-3.72,6.84-10.16,6.84-3.64,0-7.32-1-9.32-2.32Z"/><path d="M257.2,63.08c0-1.96,1.56-3.48,3.88-3.48s3.88,1.44,3.88,3.36c0,2.08-1.56,3.6-3.88,3.6s-3.88-1.52-3.88-3.48Zm.76,6.48h6.24v21.52h-6.24v-21.52Z"/><path d="M291.2,78.76v12.32h-6.24v-11.36c0-3.48-1.6-5.08-4.36-5.08-3,0-5.16,1.84-5.16,5.8v10.64h-6.24v-21.52h5.96v2.52c1.68-1.84,4.2-2.84,7.12-2.84,5.08,0,8.92,2.96,8.92,9.52Z"/><path d="M317.24,82.08h-16.28c.6,2.68,2.88,4.32,6.16,4.32,2.28,0,3.92-.68,5.4-2.08l3.32,3.6c-2,2.28-5,3.48-8.88,3.48-7.44,0-12.28-4.68-12.28-11.08s4.92-11.08,11.48-11.08,11.2,4.24,11.2,11.16c0,.48-.08,1.16-.12,1.68Zm-16.36-3.64h10.6c-.44-2.72-2.48-4.48-5.28-4.48s-4.88,1.72-5.32,4.48Z"/><path d="M319.44,89.08l2.08-4.48c1.92,1.24,4.84,2.08,7.48,2.08,2.88,0,3.96-.76,3.96-1.96,0-3.52-13,.08-13-8.52,0-4.08,3.68-6.96,9.96-6.96,2.96,0,6.24,.68,8.28,1.88l-2.08,4.44c-2.12-1.2-4.24-1.6-6.2-1.6-2.8,0-4,.88-4,2,0,3.68,13,.12,13,8.6,0,4-3.72,6.84-10.16,6.84-3.64,0-7.32-1-9.32-2.32Z"/><path d="M340.68,89.08l2.08-4.48c1.92,1.24,4.84,2.08,7.48,2.08,2.88,0,3.96-.76,3.96-1.96,0-3.52-13,.08-13-8.52,0-4.08,3.68-6.96,9.96-6.96,2.96,0,6.24,.68,8.28,1.88l-2.08,4.44c-2.12-1.2-4.24-1.6-6.2-1.6-2.8,0-4,.88-4,2,0,3.68,13,.12,13,8.6,0,4-3.72,6.84-10.16,6.84-3.64,0-7.32-1-9.32-2.32Z"/><path d="M205.56,100.58v28h-5.32l-13.96-17v17h-6.4v-28h5.36l13.92,17v-17h6.4Z"/><path d="M232.72,119.58h-16.28c.6,2.68,2.88,4.32,6.16,4.32,2.28,0,3.92-.68,5.4-2.08l3.32,3.6c-2,2.28-5,3.48-8.88,3.48-7.44,0-12.28-4.68-12.28-11.08s4.92-11.08,11.48-11.08,11.2,4.24,11.2,11.16c0,.48-.08,1.16-.12,1.68Zm-16.36-3.64h10.6c-.44-2.72-2.48-4.48-5.28-4.48s-4.88,1.72-5.32,4.48Z"/><path d="M250.88,127.54c-1.28,.92-3.16,1.36-5.08,1.36-5.08,0-8.04-2.6-8.04-7.72v-8.84h-3.32v-4.8h3.32v-5.24h6.24v5.24h5.36v4.8h-5.36v8.76c0,1.84,1,2.84,2.68,2.84,.92,0,1.84-.28,2.52-.8l1.68,4.4Z"/><path d="M288.56,107.06l-7.8,21.52h-6l-4.84-13.36-5,13.36h-6l-7.76-21.52h5.88l5.08,14.56,5.28-14.56h5.28l5.12,14.56,5.24-14.56h5.52Z"/><path d="M289.28,117.82c0-6.48,5-11.08,11.84-11.08s11.8,4.6,11.8,11.08-4.96,11.08-11.8,11.08-11.84-4.6-11.84-11.08Zm17.32,0c0-3.72-2.36-5.96-5.48-5.96s-5.52,2.24-5.52,5.96,2.4,5.96,5.52,5.96,5.48-2.24,5.48-5.96Z"/><path d="M330.44,106.74v5.76c-.52-.04-.92-.08-1.4-.08-3.44,0-5.72,1.88-5.72,6v10.16h-6.24v-21.52h5.96v2.84c1.52-2.08,4.08-3.16,7.4-3.16Z"/><path d="M343.4,120.14l-3,2.96v5.48h-6.24v-29.67h6.24v16.8l9.12-8.64h7.44l-8.96,9.12,9.76,12.4h-7.56l-6.8-8.44Z"/></g></g></g></svg>