<?xml version="1.0" standalone="no"?>
<!DOCTYPE svg PUBLIC "-//W3C//DTD SVG 20010904//EN"
 "http://www.w3.org/TR/2001/REC-SVG-20010904/DTD/svg10.dtd">
<svg version="1.0" xmlns="http://www.w3.org/2000/svg"
 width="1025.000000pt" height="1025.000000pt" viewBox="0 0 1025.000000 1025.000000"
 preserveAspectRatio="xMidYMid meet">
<metadata>
Created by potrace 1.14, written by Peter Selinger 2001-2017
</metadata>
<g transform="translate(0.000000,1025.000000) scale(0.100000,-0.100000)"
fill="#000000" stroke="none">
<path d="M4968 10243 c6 -2 18 -2 25 0 6 3 1 5 -13 5 -14 0 -19 -2 -12 -5z"/>
<path d="M5260 10239 c538 -32 1045 -173 1440 -399 157 -90 174 -107 73 -71
-329 118 -742 212 -1123 257 -184 21 -682 30 -880 15 -1051 -80 -2005 -467
-2815 -1142 -136 -113 -405 -378 -534 -525 -156 -178 -259 -313 -433 -564 -28
-41 38 124 102 255 181 373 453 715 850 1069 l65 58 -80 -63 c-558 -439 -1057
-1055 -1383 -1704 -676 -1352 -721 -2942 -121 -4328 128 -295 257 -533 438
-804 552 -826 1322 -1470 2228 -1862 1294 -560 2772 -560 4066 0 295 128 533
257 804 438 826 552 1470 1322 1862 2228 560 1294 560 2772 0 4066 -128 295
-257 533 -438 804 -552 826 -1322 1470 -2228 1862 -539 233 -1110 370 -1711
411 -85 5 -190 9 -235 9 -69 -2 -61 -3 53 -10z m-285 -993 c11 -8 45 -64 75
-125 38 -78 61 -113 75 -116 11 -3 72 -12 135 -21 63 -9 121 -20 128 -26 25
-21 10 -48 -83 -139 -72 -70 -95 -99 -95 -119 0 -14 9 -75 20 -135 19 -101 19
-110 3 -127 -9 -10 -23 -18 -31 -18 -8 0 -67 28 -131 62 l-116 61 -122 -62
c-123 -64 -154 -70 -167 -34 -4 9 3 75 16 146 l22 130 -97 91 c-139 129 -135
146 39 171 60 9 119 18 132 20 17 4 36 34 82 124 66 133 77 144 115 117z
m1638 -330 c8 -8 27 -66 42 -128 15 -62 31 -120 35 -128 5 -8 63 -35 130 -60
92 -34 125 -51 133 -68 14 -30 -1 -45 -128 -120 l-100 -59 -7 -49 c-3 -27 -7
-84 -7 -127 -2 -148 -30 -153 -172 -32 -55 47 -103 85 -107 85 -4 0 -56 -14
-117 -30 -132 -36 -160 -37 -175 -9 -10 17 -2 42 41 144 l52 125 -77 116 c-71
108 -75 119 -62 138 16 24 41 26 198 13 l97 -8 76 93 c103 125 117 135 148
104z m-3186 -171 c66 -71 94 -95 113 -95 14 0 74 9 135 19 117 20 130 19 145
-10 8 -14 -3 -45 -51 -142 l-62 -124 62 -117 c63 -119 71 -156 36 -169 -12 -5
-155 17 -252 38 -17 4 -41 -15 -114 -90 -92 -95 -123 -112 -148 -82 -6 7 -20
72 -31 143 -12 71 -22 129 -23 130 -1 1 -49 25 -107 54 -121 60 -140 74 -140
106 0 20 19 33 123 86 l122 63 18 130 c11 72 23 136 29 143 25 30 56 12 145
-83z m4514 -552 c10 -12 14 -52 14 -152 l0 -135 99 -76 c54 -41 104 -83 110
-92 18 -30 -20 -53 -142 -89 -62 -18 -119 -37 -126 -43 -8 -6 -31 -63 -51
-126 -43 -130 -48 -140 -81 -140 -19 0 -38 22 -95 108 -40 59 -77 110 -83 114
-6 4 -70 8 -142 8 -188 0 -190 7 -70 159 37 46 70 91 75 100 5 10 -5 60 -30
140 -56 181 -46 191 135 127 143 -51 117 -56 266 53 46 33 89 61 96 61 6 0 18
-7 25 -17z m-5553 -185 c6 -7 13 -56 16 -108 13 -190 1 -168 126 -239 169 -96
168 -111 -11 -185 l-124 -52 -23 -100 c-40 -170 -44 -179 -73 -182 -23 -3 -40
12 -114 98 l-88 102 -86 -8 c-47 -5 -113 -9 -146 -9 -58 0 -60 1 -63 28 -3 20
14 56 62 132 36 58 66 111 66 119 0 8 -22 67 -50 131 -51 119 -53 144 -16 158
8 3 71 -8 141 -24 l127 -30 31 25 c18 14 64 54 102 90 69 64 102 79 123 54z
m6203 -909 c81 -85 101 -101 121 -96 69 16 239 39 252 34 28 -11 18 -54 -41
-170 l-56 -114 61 -116 c65 -121 74 -153 45 -164 -10 -4 -76 3 -147 15 l-130
23 -96 -96 c-95 -95 -133 -115 -147 -79 -3 8 -15 72 -27 142 l-21 127 -119 61
c-120 62 -141 79 -130 109 4 9 60 43 125 76 90 44 120 64 124 81 2 13 11 72
19 131 15 110 26 137 54 137 9 0 60 -46 113 -101z m-7023 -351 c5 -7 26 -62
47 -123 21 -60 43 -115 49 -122 6 -6 65 -26 131 -43 66 -18 126 -37 133 -42
30 -25 12 -53 -80 -123 -141 -107 -129 -85 -122 -235 10 -191 -1 -197 -164
-88 l-107 72 -70 -26 c-38 -14 -99 -36 -134 -49 l-63 -24 -18 23 c-18 21 -17
25 16 134 18 62 34 123 34 136 0 14 -31 60 -80 119 -44 54 -80 105 -80 115 0
35 39 48 150 48 58 0 115 3 128 6 15 5 48 44 94 113 39 58 76 109 82 113 17
12 42 9 54 -4z m7476 -680 c3 -13 10 -97 17 -187 l12 -164 76 7 c42 3 106 9
142 12 l66 6 7 -32 c3 -18 6 -52 6 -75 0 -43 0 -43 -42 -49 -24 -3 -87 -8
-140 -12 l-98 -7 0 -31 c0 -34 46 -615 56 -708 7 -64 31 -98 70 -98 16 0 43
18 81 55 l57 55 63 -41 c35 -23 63 -44 63 -47 0 -16 -67 -105 -103 -139 -54
-50 -117 -80 -208 -99 -126 -27 -223 -7 -299 62 -69 63 -76 96 -111 532 -16
213 -32 397 -35 410 -3 16 -10 22 -22 18 -9 -2 -51 -6 -92 -8 l-75 -3 0 44 0
44 85 37 85 37 -2 74 c-1 41 -5 95 -8 120 l-5 45 117 74 c106 68 146 84 215
89 11 1 19 -8 22 -21z m-3258 -67 c61 -31 174 -127 174 -149 0 -6 -179 -130
-202 -140 -4 -2 -19 21 -34 50 -45 90 -102 138 -164 138 -72 0 -100 -43 -100
-157 0 -79 17 -304 24 -310 2 -2 65 2 141 8 159 14 155 16 155 -77 l0 -61
-141 -11 c-77 -6 -142 -12 -144 -14 -1 -2 16 -232 38 -511 33 -401 39 -510 29
-516 -12 -7 -342 -35 -347 -29 -1 2 -19 215 -39 473 -20 259 -39 489 -43 513
l-5 43 -102 -7 c-55 -3 -105 -7 -111 -8 -5 0 -12 17 -15 38 -6 48 -10 44 -70
-71 -24 -46 -48 -83 -52 -83 -5 0 -25 11 -46 25 -104 69 -263 20 -328 -101
l-21 -39 35 -423 c19 -233 33 -425 30 -427 -4 -4 -351 -35 -355 -32 -4 5 -84
1031 -81 1054 2 22 21 38 103 90 55 35 108 68 117 73 13 8 28 -1 72 -41 l56
-51 52 48 c83 74 145 99 249 99 78 0 92 -3 157 -36 l72 -35 0 27 c0 31 7 32
150 44 l75 6 0 137 c0 120 3 144 23 194 56 139 183 252 330 294 29 8 86 12
148 11 91 -2 106 -5 170 -36z m2337 -390 c38 -15 80 -43 123 -83 35 -33 64
-63 64 -67 0 -8 -190 -174 -194 -170 -2 2 -13 23 -25 46 -28 56 -78 105 -135
133 -38 18 -59 21 -116 18 -59 -3 -74 -8 -107 -34 -92 -74 -130 -178 -120
-329 14 -201 97 -373 215 -442 39 -23 59 -28 112 -28 135 1 223 84 304 286
l14 37 84 -15 c45 -9 85 -17 88 -20 10 -9 -33 -143 -71 -222 -146 -297 -516
-400 -815 -226 -74 42 -173 149 -216 231 -98 187 -89 422 24 611 54 91 158
187 252 233 123 60 170 70 326 67 112 -3 145 -7 193 -26z m-1502 -95 c155 -33
292 -137 355 -270 34 -71 58 -166 46 -177 -4 -3 -187 -20 -406 -38 -220 -17
-401 -33 -403 -34 -1 -2 7 -41 18 -87 41 -174 138 -315 242 -355 137 -52 340
57 407 218 l22 54 77 -5 c116 -7 114 -5 88 -83 -30 -89 -80 -169 -154 -243
-82 -83 -159 -133 -257 -168 -68 -23 -97 -28 -181 -28 -179 0 -312 55 -435
179 -123 123 -170 239 -170 412 1 190 53 330 172 455 55 58 89 83 152 115 134
66 284 85 427 55z m-3298 -271 c157 -33 288 -132 352 -266 35 -74 60 -169 47
-180 -4 -3 -187 -20 -406 -38 -220 -17 -401 -33 -403 -34 -1 -2 7 -41 18 -87
41 -174 138 -315 242 -355 137 -52 340 57 407 218 l22 54 77 -5 c116 -7 114
-5 88 -83 -30 -89 -80 -169 -154 -243 -82 -83 -159 -133 -257 -168 -68 -23
-97 -28 -181 -28 -56 0 -124 7 -155 15 -207 55 -384 227 -434 421 -20 77 -20
226 -1 317 40 188 184 364 355 431 114 45 261 57 383 31z m-1310 -105 c114
-35 218 -119 284 -230 12 -19 34 -71 49 -115 26 -73 28 -93 29 -220 0 -155
-16 -229 -77 -350 -65 -127 -212 -241 -362 -280 -81 -20 -231 -29 -286 -17
-24 6 -45 10 -46 9 0 -1 7 -96 17 -212 10 -115 18 -228 18 -251 l1 -41 -175
-13 c-97 -7 -178 -10 -181 -8 -2 3 -33 354 -68 779 -57 707 -61 775 -47 790 9
9 64 45 122 81 90 56 113 66 160 69 l54 4 3 -52 c2 -29 6 -53 9 -53 3 0 27 16
53 35 122 90 299 119 443 75z m3857 -1334 c0 -13 31 -413 70 -887 38 -475 68
-864 67 -866 -2 -1 -57 -7 -123 -13 -65 -5 -145 -12 -176 -15 l-58 -6 0 31 c0
16 -3 30 -6 30 -4 0 -28 -13 -53 -28 -110 -68 -250 -96 -363 -73 -97 20 -175
66 -264 155 -123 123 -186 270 -187 436 -1 98 16 166 65 270 34 71 55 100 132
175 146 145 286 201 479 193 l97 -5 0 36 c0 20 -7 113 -15 206 -22 251 -29
221 72 285 140 89 163 100 215 100 44 0 48 -2 48 -24z m2607 -371 c35 -15 67
-33 73 -40 7 -8 -6 -40 -42 -108 -29 -54 -56 -97 -60 -97 -5 0 -25 11 -46 25
-104 69 -263 20 -328 -101 l-21 -39 35 -423 c19 -233 33 -425 30 -427 -4 -4
-351 -35 -355 -32 -4 5 -84 1031 -81 1053 2 22 23 40 118 100 l115 73 25 -22
c14 -12 39 -35 57 -51 l32 -29 52 47 c89 80 159 107 264 103 50 -3 88 -12 132
-32z m-1486 -129 c155 -33 292 -137 355 -270 34 -71 58 -166 46 -177 -4 -3
-187 -20 -406 -38 -220 -17 -401 -33 -403 -34 -1 -2 7 -41 18 -87 41 -174 138
-315 242 -355 137 -52 340 57 407 218 l22 54 77 -5 c116 -7 114 -5 88 -83 -30
-89 -80 -169 -154 -243 -82 -83 -159 -133 -257 -168 -68 -23 -97 -28 -181 -28
-179 0 -312 55 -435 179 -123 123 -170 239 -170 412 1 190 53 330 172 455 55
58 89 83 152 115 134 66 284 85 427 55z m-2374 -181 c35 -15 67 -33 73 -40 7
-8 -6 -40 -42 -108 -29 -54 -56 -97 -60 -97 -5 0 -25 11 -46 25 -104 69 -263
20 -328 -101 l-21 -39 35 -423 c19 -233 33 -425 30 -427 -4 -4 -351 -35 -355
-32 -4 5 -84 1031 -81 1053 2 22 23 40 118 100 l115 73 25 -22 c14 -12 39 -35
57 -51 l32 -29 52 47 c89 80 159 107 264 103 50 -3 88 -12 132 -32z m-1497
-131 c225 -52 399 -217 455 -429 19 -75 19 -211 0 -294 -9 -35 -34 -100 -58
-145 -137 -266 -457 -398 -772 -320 -222 56 -405 241 -446 451 -17 91 -7 262
21 340 29 83 88 173 158 240 68 65 206 137 302 157 88 19 259 19 340 0z"/>
<path d="M6322 5353 c-55 -27 -112 -127 -112 -194 0 -26 3 -29 33 -29 61 1
348 28 354 33 9 9 -19 80 -48 124 -51 73 -152 103 -227 66z"/>
<path d="M3019 5080 c-55 -29 -109 -123 -109 -191 0 -26 3 -29 33 -29 61 1
348 28 354 33 9 9 -19 80 -48 124 -52 75 -154 103 -230 63z"/>
<path d="M1707 4930 c-38 -12 -101 -60 -137 -105 -36 -46 -36 -37 -10 -355 23
-275 34 -312 99 -355 79 -53 177 -52 240 1 36 30 74 108 90 182 16 75 14 226
-5 322 -45 241 -143 350 -277 310z"/>
<path d="M5299 3037 c-47 -32 -96 -99 -115 -160 -24 -76 -30 -263 -10 -357 40
-193 173 -360 287 -360 42 0 107 32 143 69 l27 28 -25 307 c-21 251 -29 316
-46 354 -53 120 -176 176 -261 119z"/>
<path d="M6692 3143 c-55 -27 -112 -127 -112 -194 0 -26 3 -29 33 -29 61 1
348 28 354 33 9 9 -19 80 -48 124 -51 73 -152 103 -227 66z"/>
<path d="M2798 2842 c-52 -34 -97 -110 -118 -201 -16 -69 -8 -262 16 -351 56
-214 172 -350 299 -350 61 0 103 23 144 80 53 73 66 129 65 280 -1 272 -87
477 -227 541 -55 24 -143 25 -179 1z"/>
<path d="M2019 9203 c-13 -16 -12 -17 4 -4 9 7 17 15 17 17 0 8 -8 3 -21 -13z"/>
</g>
</svg>
